<svg xmlns="http://www.w3.org/2000/svg" viewBox="0 0 1200 800" preserveAspectRatio="xMidYMid slice">
  <defs>
    <linearGradient id="bg" x1="0" y1="0" x2="1" y2="1">
      <stop offset="0%" stop-color="#dcfce7" stop-opacity="0.88" />
      <stop offset="100%" stop-color="#f0fdf4" stop-opacity="0.75" />
    </linearGradient>
    <pattern id="lines" width="240" height="240" patternUnits="userSpaceOnUse" patternTransform="rotate(15)">
      <path d="M0 120 L240 120" stroke="#4d7c0f" stroke-opacity="0.08" stroke-width="24" />
      <path d="M0 80 L240 80" stroke="#4d7c0f" stroke-opacity="0.05" stroke-width="12" />
      <path d="M0 160 L240 160" stroke="#4d7c0f" stroke-opacity="0.05" stroke-width="12" />
    </pattern>
  </defs>
  <rect width="1200" height="800" fill="url(#bg)" />
  <rect width="1200" height="800" fill="url(#lines)" />
  <g fill="#ffffff" opacity="0.12">
    <ellipse cx="260" cy="220" rx="140" ry="70" />
    <ellipse cx="880" cy="140" rx="180" ry="80" />
    <ellipse cx="520" cy="660" rx="160" ry="90" />
  </g>
  <g fill="#16a34a" opacity="0.08">
    <path d="M165 160c30-50 90-50 120 0 15 28 12 55-3 85-17 36-42 35-61 2-20-35-20-67-56-87z" />
    <path d="M980 190c24-39 68-39 92 0 12 22 10 43-2 66-12 23-30 23-44 1-15-24-15-46-46-67z" />
    <path d="M380 560c34-56 104-56 138 0 18 34 15 67-4 103-22 37-52 36-76 2-25-38-25-74-58-105z" />
  </g>
</svg>
